<svg width="249" height="44" viewBox="0 0 249 44" fill="none" xmlns="http://www.w3.org/2000/svg">
<g id="Logo_main">
<path id="Vector" fill-rule="evenodd" clip-rule="evenodd" d="M38.4676 34.9182C34.0829 40.5714 27.708 43.3979 20.7345 43.3979C10.161 43.3979 0 34.3171 0 21.9954C0 9.0808 10.161 0.397949 21.1228 0.397949C27.6999 0.397949 34.0748 3.22455 38.0631 8.47162L31.6883 14.5309C28.8972 10.9002 25.3134 9.28386 21.1228 9.28386C14.3434 9.28386 8.76949 14.9371 8.76949 21.8005C8.76949 28.6639 14.3515 34.5202 21.1228 34.5202C25.3053 34.5202 29.0995 32.7007 31.8824 28.867L38.4595 34.9263" fill="#003B71"/>
<path id="Vector_2" fill-rule="evenodd" clip-rule="evenodd" d="M60.3509 25.4311L44.1063 1.42944H54.2349L64.7923 17.5118L75.4224 1.42944H85.3892L69.1447 25.4311V42.1064H60.3509V25.4311Z" fill="#003B71"/>
<path id="Vector_3" d="M103.6 1.42944H95.1376V42.1146H103.6V1.42944Z" fill="#003B71"/>
<path id="Vector_4" fill-rule="evenodd" clip-rule="evenodd" d="M164.371 1.42944H172.655L191.739 27.4536V1.42944H200.274V42.1064H192.492L172.906 15.4893V42.1064H164.371V1.42944Z" fill="#003B71"/>
<path id="Vector_5" fill-rule="evenodd" clip-rule="evenodd" d="M227.198 9.85238H214.124V1.42944H249V9.85238H235.919V42.1064H227.198V9.85238Z" fill="#003B71"/>
<path id="Vector_6" fill-rule="evenodd" clip-rule="evenodd" d="M121.292 1.42944H150.529V9.85238H129.86V33.8541H150.529V42.1064H121.292V1.42944Z" fill="#003B71"/>
<path id="Vector_7" d="M135.393 21.768C135.393 18.6409 137.974 16.1067 141.161 16.1067C144.349 16.1067 146.929 18.6409 146.929 21.768C146.929 24.8951 144.349 27.4293 141.161 27.4293C137.974 27.4293 135.393 24.8951 135.393 21.768Z" fill="#003B71"/>
</g>
</svg>
