<svg xmlns="http://www.w3.org/2000/svg" width="364.23849777023645" height="274.5453888377294" viewBox="0 0 1466 1105" version="1.1"><path d="M 1455 46.117 C 1362.227 61.019, 1274.679 86.662, 1216.500 115.974 C 1189.647 129.503, 1174.600 139.291, 1163.500 150.451 C 1153.397 160.609, 1148.227 168.687, 1144.268 180.500 C 1141.796 187.875, 1141.585 189.788, 1141.566 205 C 1141.548 219.748, 1141.840 222.668, 1144.313 232.500 C 1155.265 276.037, 1192.280 335.508, 1252.925 407 C 1273.964 431.803, 1296.836 457.111, 1340 503.351 C 1357.429 522.022, 1357.501 522.084, 1357.802 518.681 C 1358.497 510.836, 1350.346 486, 1347.077 486 C 1345.778 486, 1343.608 482.430, 1339.025 472.750 C 1310.941 413.438, 1297.361 355.322, 1299.476 303.500 C 1301.051 264.925, 1306.324 234.598, 1316.665 204.639 C 1330.832 163.597, 1356.932 124.863, 1388.529 97.986 C 1393.369 93.869, 1400.743 87.459, 1404.915 83.743 C 1413.252 76.317, 1424.513 70, 1429.416 70 C 1431.848 70, 1436.190 67.362, 1448.531 58.385 C 1457.314 51.997, 1464.928 46.372, 1465.450 45.885 C 1466.603 44.811, 1462.576 44.900, 1455 46.117" stroke="none" fill="#f05922" fill-rule="evenodd"/><path d="M 1419.384 73.493 C 1415.598 75.415, 1409.087 80.027, 1404.915 83.743 C 1400.743 87.459, 1393.369 93.869, 1388.529 97.986 C 1356.932 124.863, 1330.832 163.597, 1316.665 204.639 C 1306.324 234.598, 1301.051 264.925, 1299.476 303.500 C 1297.361 355.322, 1310.941 413.438, 1339.025 472.750 C 1343.486 482.173, 1345.795 486, 1347.016 486 C 1348.578 486, 1348.473 484.884, 1345.869 473.750 C 1337.482 437.889, 1332.046 406.680, 1329.920 382.187 C 1328.343 364.020, 1329.247 308.864, 1331.415 291 C 1341.581 207.211, 1371.514 138.527, 1423.479 79.750 C 1431.847 70.285, 1432.014 70, 1429.184 70 C 1427.580 70, 1423.171 71.572, 1419.384 73.493" stroke="none" fill="#b34215" fill-rule="evenodd"/><path d="M 969.615 143.674 C 956.127 158.206, 937.878 172.140, 901 196.066 C 848.881 229.880, 822.197 250.748, 789.899 282.955 C 743.917 328.806, 710.582 377.345, 678.607 445.005 C 670.169 462.859, 668.499 468.691, 671.539 469.686 C 672.111 469.873, 678.364 460.458, 685.435 448.763 C 714.003 401.513, 732.867 376.662, 766 342.628 C 795.848 311.968, 827.042 285.360, 881 244.535 C 915.268 218.609, 927.409 208.425, 942.003 193.368 C 959.994 174.805, 970.582 159.261, 975.452 144.263 C 978.204 135.787, 977.045 135.670, 969.615 143.674" stroke="none" fill="#519032" fill-rule="evenodd"/><path d="M 888 54.668 C 875.497 55.909, 845.210 62.457, 843.345 64.322 C 843.064 64.603, 844.649 67.843, 846.868 71.522 C 852.362 80.632, 853.620 87.033, 851.523 95.218 C 847.980 109.047, 834.195 130.673, 806.404 166 C 776.146 204.464, 756.743 230.829, 738.329 258.500 C 679.267 347.254, 647.252 435.776, 640.001 530.385 C 638.985 543.632, 639.169 547.538, 640.612 543.393 C 645.614 529.031, 655.562 505.616, 666.446 482.588 C 670.338 474.354, 671.756 470.356, 671.038 469.638 C 668.816 467.416, 670.313 462.554, 678.654 444.904 C 710.578 377.354, 743.944 328.780, 789.899 282.955 C 822.197 250.748, 848.881 229.880, 901 196.066 C 938.040 172.035, 955.381 158.776, 970.132 143.209 C 979.302 133.530, 980.484 130.094, 980.353 113.500 C 980.285 104.939, 979.792 101.187, 978.128 96.581 C 973.080 82.599, 964.283 73.661, 947.500 65.461 C 928.851 56.349, 908.409 52.641, 888 54.668" stroke="none" fill="#71be44" fill-rule="evenodd"/><path d="M 918.500 37.963 C 916.130 38.937, 916.763 39.239, 925 41.061 C 945.563 45.609, 966.336 56.380, 992.916 76.275 C 1017.948 95.013, 1034.913 104.371, 1057.569 111.940 C 1086.834 121.717, 1118.393 123.223, 1151.885 116.441 C 1175.726 111.614, 1195.775 104.032, 1249.500 79.524 C 1282.474 64.482, 1306.563 54.142, 1320.702 48.962 C 1327.923 46.317, 1329.673 45.311, 1328.830 44.295 C 1328.239 43.583, 1327.106 43, 1326.312 43 C 1324.834 43, 1243.936 66.359, 1200 79.472 C 1164.185 90.161, 1147.251 93.484, 1122.686 94.644 C 1099.098 95.757, 1071.278 91.772, 1047.663 83.897 C 1040.973 81.666, 1021.925 73.595, 1005.332 65.961 C 972.354 50.787, 952.153 42.083, 942.747 38.995 C 936.414 36.916, 922.488 36.323, 918.500 37.963" stroke="none" fill="#076a6e" fill-rule="evenodd"/><path d="M 984 1.003 C 937.705 4.757, 901.436 13.292, 873.482 27.010 C 863.215 32.048, 845 43.471, 845 44.872 C 845 45.302, 849.612 44.612, 855.250 43.338 C 872.077 39.537, 887.368 37.805, 903 37.931 C 910.975 37.995, 921.476 37.764, 926.335 37.417 C 932.248 36.996, 936.713 37.209, 939.835 38.063 C 947.282 40.098, 972.102 50.664, 1005 65.805 C 1021.775 73.525, 1040.973 81.666, 1047.663 83.897 C 1071.278 91.772, 1099.098 95.757, 1122.686 94.644 C 1147.508 93.472, 1163.971 90.211, 1201.454 79.041 C 1215.779 74.772, 1249.669 64.844, 1276.765 56.978 C 1321.270 44.060, 1326.268 42.805, 1328.497 43.998 C 1330.697 45.176, 1334.240 44.476, 1361.232 37.529 C 1377.880 33.244, 1392.400 29.408, 1393.500 29.004 C 1394.648 28.583, 1389.963 27.982, 1382.500 27.593 C 1331.217 24.924, 1297.435 22.159, 1210.500 13.517 C 1096.124 2.148, 1080.130 0.980, 1032.500 0.519 C 1011.600 0.317, 989.775 0.534, 984 1.003" stroke="none" fill="#00afbc" fill-rule="evenodd"/><path d="M 911.500 379.089 C 853.627 382.081, 801.690 399.681, 750.948 433.495 C 739.702 440.990, 728.805 448.769, 726.733 450.781 C 722.974 454.431, 718.528 462.150, 719.164 463.919 C 719.349 464.433, 722.425 463.049, 726 460.844 C 736.329 454.474, 764.616 440.756, 776.813 436.203 C 800.553 427.340, 827.500 420.880, 855.500 417.340 C 874.767 414.903, 919.055 414.928, 941.500 417.387 C 1018.408 425.816, 1079.673 444.759, 1205.954 499.158 C 1224.904 507.321, 1241.022 514, 1241.773 514 C 1244.329 514, 1242.627 509.579, 1239.500 508.094 C 1237.850 507.310, 1222.100 497.820, 1204.500 487.006 C 1143.456 449.497, 1123.635 438.161, 1090.752 421.952 C 1023.841 388.970, 969.897 376.071, 911.500 379.089 M 160.500 571.627 C 146.675 572.349, 86.444 575.001, 83.861 575 C 82.409 575, 80.269 575.788, 79.105 576.750 C 77.212 578.315, 76.879 580.136, 75.951 594 C 74.365 617.708, 69.322 672.825, 65.430 709 C 51.239 840.895, 31.522 957.886, 5.453 1064.879 C -0.367 1088.765, -0.910 1093, 1.582 1095.068 C 2.846 1096.117, 15.067 1096.400, 62.332 1096.477 C 94.874 1096.529, 122.751 1096.170, 124.280 1095.678 C 125.810 1095.186, 127.756 1093.438, 128.607 1091.794 C 129.926 1089.242, 138.050 1042.204, 150.074 967.500 C 151.755 957.050, 153.284 948.013, 153.470 947.417 C 153.684 946.734, 157.516 947.572, 163.857 949.690 C 209.693 965.001, 260.842 961.022, 306.500 938.593 C 329.030 927.525, 345.434 915.594, 362.534 897.835 C 395.158 863.955, 417.959 819.619, 426.477 773.500 C 436.374 719.918, 429.985 674.277, 407.986 641.417 C 400.744 630.599, 384.634 614.766, 373.064 607.095 C 344.725 588.306, 312.979 578.691, 261.997 573.454 C 247.185 571.933, 178.352 570.694, 160.500 571.627 M 1048 572.685 C 1000.659 575.397, 968.221 580.617, 939.500 590.147 C 847.336 620.729, 785.875 698.201, 775.955 796.294 C 774.335 812.320, 775.231 849.865, 777.476 860 C 789.785 915.568, 825.452 949.849, 876.497 955.170 C 903.335 957.967, 931.916 950.536, 956.208 934.445 C 969.024 925.956, 985.114 910.112, 994.462 896.777 C 998.211 891.430, 1001.712 887.322, 1002.242 887.650 C 1003.245 888.270, 1002.787 901.059, 1000.858 926.305 C 999.669 941.862, 1000.336 945.279, 1004.844 946.718 C 1006.305 947.184, 1031.243 947.532, 1060.263 947.492 C 1112.493 947.419, 1113.047 947.397, 1115.128 945.317 C 1118.090 942.355, 1118.905 936.765, 1118.966 919 C 1118.995 910.475, 1119.462 894.725, 1120.003 884 C 1124.798 788.980, 1139.094 699.302, 1164.113 607.293 C 1168.746 590.253, 1171.018 580.210, 1170.609 578.579 C 1169.718 575.030, 1166.091 574.344, 1141.500 573.076 C 1122.792 572.112, 1062.418 571.859, 1048 572.685 M 723.594 577.607 C 706.268 580.736, 691.914 586.522, 677.230 596.298 C 664.270 604.925, 651.325 617.344, 636.028 635.823 C 629.169 644.110, 623.446 650.780, 623.312 650.645 C 623.080 650.413, 625.162 617.145, 626.603 598.057 C 627.255 589.427, 627.202 589.111, 624.682 586.591 L 622.091 584 572.111 584 C 542.886 584, 521.090 584.395, 519.626 584.952 C 518.249 585.476, 516.621 586.840, 516.008 587.985 C 515.334 589.244, 514.518 601.601, 513.941 619.282 C 510.698 718.670, 495.877 815.731, 469.349 911.327 C 461.873 938.266, 460.930 943.867, 463.509 946.008 C 465.999 948.074, 575.745 948.273, 581.191 946.221 C 588.372 943.515, 588.512 943.012, 598.506 884 C 606.594 836.248, 610.820 815.782, 617.147 793.728 C 632.871 738.925, 652.920 714.709, 690.500 705.129 C 699.708 702.782, 719.676 700, 727.317 700 C 736.840 700, 738.630 698.267, 745.604 682.286 C 758.416 652.931, 772.168 628.274, 789.546 603.500 C 801.508 586.447, 801.250 585.406, 784 581.122 C 763.513 576.034, 739.909 574.661, 723.594 577.607 M 1271.686 590.962 C 1268.691 594.521, 1269.217 591.419, 1259.461 663 C 1255.300 693.525, 1247.215 751.350, 1241.493 791.500 C 1235.771 831.650, 1229.698 875.075, 1227.997 888 C 1222.643 928.680, 1218.130 955.234, 1213.897 970.965 C 1208.386 991.443, 1195.925 1002.816, 1174.795 1006.652 C 1163.322 1008.735, 1142.393 1008.698, 1133.500 1006.579 C 1125.490 1004.670, 1122.289 1005.110, 1121.082 1008.285 C 1120.038 1011.030, 1124.727 1046.175, 1128.509 1063.948 C 1133.904 1089.303, 1138.108 1097.825, 1146.968 1101.370 C 1155.614 1104.830, 1189.567 1106.194, 1212.144 1103.988 C 1262.625 1099.057, 1296.386 1077.330, 1317.255 1036.343 C 1331.004 1009.338, 1338.557 980.052, 1347.002 921 C 1351.017 892.928, 1359.530 836.696, 1381.061 696.035 C 1387.077 656.729, 1392 622.252, 1392 619.419 C 1392 613.599, 1389.847 609.987, 1385.284 608.151 C 1383.753 607.535, 1366.975 604.124, 1348 600.571 C 1329.025 597.018, 1307.016 592.736, 1299.092 591.055 C 1291.168 589.375, 1282.320 588, 1279.431 588 C 1274.837 588, 1273.865 588.372, 1271.686 590.962 M 994.809 672.051 C 987.022 673.130, 974.157 677.608, 968.465 681.219 C 949.428 693.300, 927.184 722.688, 917.388 748.705 C 909.431 769.836, 905.848 800.909, 909.052 821 C 911.191 834.414, 918.398 844.851, 929 849.887 C 933.665 852.103, 935.866 852.500, 943.500 852.500 C 951.277 852.500, 953.255 852.129, 958.056 849.771 C 972.697 842.581, 988.126 822.823, 996.544 800.488 C 999.384 792.952, 1007.463 760.732, 1019.485 709 C 1023.639 691.125, 1027.265 675.772, 1027.544 674.882 C 1027.931 673.647, 1027.156 673.122, 1024.276 672.665 C 1016.717 671.466, 1001.339 671.145, 994.809 672.051 M 194.942 679.508 C 193.535 680.253, 191.793 682.131, 191.071 683.681 C 190.330 685.274, 188.950 696.723, 187.898 710 C 184.324 755.134, 180.091 791.897, 174.351 827.668 C 171.784 843.668, 171.776 843.875, 173.628 847.655 C 178.555 857.709, 206.865 863.656, 226 858.656 C 242.023 854.470, 257.503 844.254, 269.678 829.832 C 286.051 810.437, 295.233 792.179, 300.525 768.500 C 302.684 758.840, 303.600 730.484, 302.050 721.294 C 299.429 705.758, 290.892 693.869, 277.182 686.665 C 263.872 679.671, 258.246 678.767, 226 678.441 C 203.506 678.213, 196.961 678.438, 194.942 679.508" stroke="none" fill="#083f87" fill-rule="evenodd"/><path d="M 989.810 225.075 C 963.476 228.322, 934.746 239.778, 903 259.689 C 836.178 301.599, 774.715 360.759, 723.627 432.340 C 707.883 454.400, 692 479.617, 692 482.553 C 692 483.991, 692.400 485.017, 692.888 484.833 C 693.377 484.650, 699.384 480.225, 706.238 475 C 717.229 466.622, 718.829 465.023, 719.791 461.459 C 721.671 454.486, 727.843 448.917, 750.257 433.969 C 802.256 399.291, 853.398 382.029, 912.845 379.091 C 971.861 376.175, 1026.281 389.609, 1095.242 424.118 C 1125.394 439.206, 1146.170 451.165, 1204.500 487.006 C 1222.100 497.820, 1237.850 507.319, 1239.500 508.114 C 1241.736 509.191, 1242.491 510.235, 1242.466 512.212 C 1242.434 514.719, 1246.355 516.898, 1313.905 551.910 C 1353.215 572.285, 1385.581 588.752, 1385.830 588.503 C 1387.044 587.289, 1375.918 575.263, 1360.560 561.191 C 1326.936 530.382, 1296.142 497.928, 1263.597 459 C 1237.759 428.095, 1221.143 406.642, 1175.299 345 C 1150.165 311.205, 1135.575 293.589, 1118.506 276.431 C 1088.774 246.544, 1067.034 233.233, 1037.500 226.834 C 1026.944 224.547, 1001.658 223.615, 989.810 225.075" stroke="none" fill="#0066b2" fill-rule="evenodd"/></svg>